<!-- Generated by IcoMoon.io -->
<svg version="1.1" xmlns="http://www.w3.org/2000/svg" width="16" height="16" viewBox="0 0 16 16">
<title>check</title>
<path fill="#f4f4fd" d="M11.446 4.255c0.173-0.165 0.403-0.257 0.641-0.255s0.467 0.097 0.637 0.265c0.17 0.168 0.269 0.396 0.275 0.636s-0.080 0.473-0.242 0.649l-4.895 6.154c-0.084 0.091-0.186 0.164-0.299 0.215s-0.235 0.078-0.359 0.080c-0.124 0.002-0.247-0.021-0.361-0.067s-0.219-0.116-0.306-0.204l-3.246-3.263c-0.090-0.085-0.163-0.187-0.213-0.3s-0.077-0.236-0.080-0.36c-0.002-0.124 0.021-0.248 0.067-0.363s0.115-0.22 0.203-0.308c0.087-0.088 0.191-0.157 0.306-0.204s0.237-0.069 0.361-0.067c0.124 0.002 0.245 0.029 0.358 0.080s0.214 0.123 0.299 0.214l2.569 2.581 4.26-5.457c0.008-0.010 0.016-0.019 0.024-0.027h-0.001z"></path>
</svg>